<svg width="48" height="48" viewBox="0 0 48 48" fill="none" xmlns="http://www.w3.org/2000/svg">
<rect width="48" height="48" rx="24" fill="#D2D2D2" fill-opacity="0.3"/>
<path d="M31.9545 35H16.0455C15.7441 35 15.455 34.882 15.2419 34.6721C15.0288 34.4621 14.9091 34.1773 14.9091 33.8803V23.8031H11.5L23.2352 13.2915C23.4444 13.1039 23.7171 13 24 13C24.2829 13 24.5556 13.1039 24.7648 13.2915L36.5 23.8031H33.0909V33.8803C33.0909 34.1773 32.9712 34.4621 32.7581 34.6721C32.545 34.882 32.2559 35 31.9545 35ZM17.1818 32.7606H30.8182V21.7396L24 15.6328L17.1818 21.7396V32.7606Z" fill="white"/>
</svg>
